<svg xmlns="http://www.w3.org/2000/svg" xmlns:xlink="http://www.w3.org/1999/xlink" width="100" zoomAndPan="magnify" viewBox="0 0 75 30.000001" height="40" preserveAspectRatio="xMidYMid meet" version="1.0"><defs><g/><clipPath id="e30621f466"><path d="M 1.210938 1.507812 L 25.328125 1.507812 L 25.328125 24 L 1.210938 24 Z M 1.210938 1.507812 " clip-rule="nonzero"/></clipPath><clipPath id="411696869c"><path d="M 17.035156 24.542969 L 20.609375 24.542969 L 20.609375 28.117188 L 17.035156 28.117188 Z M 17.035156 24.542969 " clip-rule="nonzero"/></clipPath><clipPath id="72532c7214"><path d="M 18.824219 24.542969 C 17.835938 24.542969 17.035156 25.34375 17.035156 26.328125 C 17.035156 27.316406 17.835938 28.117188 18.824219 28.117188 C 19.808594 28.117188 20.609375 27.316406 20.609375 26.328125 C 20.609375 25.34375 19.808594 24.542969 18.824219 24.542969 " clip-rule="nonzero"/></clipPath><clipPath id="17891dcc5a"><path d="M 6.3125 24.542969 L 9.886719 24.542969 L 9.886719 28.117188 L 6.3125 28.117188 Z M 6.3125 24.542969 " clip-rule="nonzero"/></clipPath><clipPath id="31f2da1aec"><path d="M 8.101562 24.542969 C 7.113281 24.542969 6.3125 25.34375 6.3125 26.328125 C 6.3125 27.316406 7.113281 28.117188 8.101562 28.117188 C 9.085938 28.117188 9.886719 27.316406 9.886719 26.328125 C 9.886719 25.34375 9.085938 24.542969 8.101562 24.542969 " clip-rule="nonzero"/></clipPath><clipPath id="2ebb7b6799"><path d="M 64 4 L 73.789062 4 L 73.789062 21 L 64 21 Z M 64 4 " clip-rule="nonzero"/></clipPath></defs><g clip-path="url(#e30621f466)"><path fill="#ff0056" d="M 22.351562 4.980469 L 6.992188 4.980469 L 6.761719 3.886719 C 6.480469 2.59375 5.324219 1.652344 4 1.652344 L 2.371094 1.652344 C 1.726562 1.652344 1.210938 2.171875 1.210938 2.816406 C 1.210938 3.453125 1.726562 3.980469 2.371094 3.980469 L 4 3.980469 C 4.230469 3.980469 4.441406 4.144531 4.496094 4.375 L 7.464844 18.273438 L 6.597656 19.140625 C 5.785156 19.957031 5.546875 21.164062 5.988281 22.226562 C 6.421875 23.289062 7.449219 23.972656 8.59375 23.972656 L 19.253906 23.972656 C 19.894531 23.972656 20.414062 23.453125 20.414062 22.808594 C 20.414062 22.171875 19.894531 21.644531 19.253906 21.644531 L 8.59375 21.644531 C 8.296875 21.644531 8.175781 21.453125 8.128906 21.335938 C 8.082031 21.21875 8.027344 20.996094 8.238281 20.792969 L 9.210938 19.808594 L 19.917969 19.808594 C 21.195312 19.808594 22.3125 18.945312 22.640625 17.707031 L 25.074219 8.539062 C 25.304688 7.6875 25.128906 6.796875 24.585938 6.089844 C 24.054688 5.382812 23.234375 4.980469 22.351562 4.980469 Z M 22.351562 4.980469 " fill-opacity="1" fill-rule="nonzero"/></g><g clip-path="url(#411696869c)"><g clip-path="url(#72532c7214)"><path fill="#ff0056" d="M 17.035156 24.542969 L 20.609375 24.542969 L 20.609375 28.117188 L 17.035156 28.117188 Z M 17.035156 24.542969 " fill-opacity="1" fill-rule="nonzero"/></g></g><g clip-path="url(#17891dcc5a)"><g clip-path="url(#31f2da1aec)"><path fill="#ff0056" d="M 6.3125 24.542969 L 9.886719 24.542969 L 9.886719 28.117188 L 6.3125 28.117188 Z M 6.3125 24.542969 " fill-opacity="1" fill-rule="nonzero"/></g></g><g fill="#000000" fill-opacity="1"><g transform="translate(25.507201, 20.661535)"><g><path d="M 13.710938 -5.792969 C 13.300781 -4.582031 12.519531 -3.785156 11.449219 -3.785156 L 11.429688 -3.785156 C 11.859375 -4.523438 12.148438 -5.480469 12.148438 -6.476562 C 12.148438 -7.507812 11.820312 -8.582031 11 -9.457031 C 12.304688 -10.335938 13.203125 -12.054688 13.203125 -13.554688 C 13.203125 -15.542969 11.703125 -16.734375 10.003906 -16.910156 C 9.828125 -16.929688 9.613281 -16.949219 9.34375 -16.949219 C 8.796875 -16.949219 8.074219 -16.871094 7.332031 -16.5 C 7.332031 -17.144531 6.746094 -17.53125 6.085938 -17.53125 C 5.421875 -17.53125 4.679688 -17.125 4.40625 -16.226562 L -0.703125 -1.773438 C -0.800781 -1.519531 -0.839844 -1.269531 -0.839844 -1.074219 C -0.839844 -0.273438 -0.234375 0.195312 0.429688 0.195312 C 1.113281 0.195312 1.871094 -0.292969 2.066406 -1.363281 C 2.75 -0.390625 4.25 0.214844 5.792969 0.214844 C 7.273438 0.214844 8.855469 -0.292969 10.023438 -1.5 C 10.394531 -1.382812 10.785156 -1.328125 11.253906 -1.328125 C 13.535156 -1.328125 15.367188 -2.90625 16.050781 -5.285156 C 16.070312 -5.382812 16.089844 -5.480469 16.089844 -5.558594 C 16.089844 -6.203125 15.464844 -6.574219 14.839844 -6.574219 C 14.355469 -6.574219 13.867188 -6.339844 13.710938 -5.792969 Z M 6.730469 -11.449219 C 6.105469 -11.195312 5.539062 -10.394531 5.539062 -9.496094 C 5.539062 -9.324219 5.558594 -9.148438 5.597656 -8.972656 C 5.929688 -7.9375 6.804688 -7.625 7.546875 -7.625 C 7.839844 -7.625 8.113281 -7.664062 8.308594 -7.742188 C 8.796875 -7.625 9.070312 -7.195312 9.070312 -6.554688 C 9.070312 -6.222656 9.011719 -5.851562 8.855469 -5.421875 C 8.152344 -6.105469 7.097656 -6.613281 5.792969 -6.632812 C 5.167969 -6.632812 4.425781 -6.535156 3.941406 -6.320312 L 6.28125 -12.792969 C 6.765625 -13.75 7.859375 -14.21875 8.699219 -14.21875 C 9.402344 -14.21875 9.964844 -13.789062 9.964844 -13.125 C 9.964844 -12.558594 9.691406 -11.625 8.757812 -11.234375 C 8.5625 -11.390625 8.035156 -11.585938 7.46875 -11.585938 C 7.214844 -11.585938 6.960938 -11.546875 6.730469 -11.449219 Z M 5.578125 -2.242188 C 4.855469 -2.242188 4.445312 -2.574219 4.445312 -3.023438 C 4.445312 -3.121094 4.445312 -3.21875 4.484375 -3.316406 C 4.640625 -3.824219 5.148438 -4.171875 5.890625 -4.171875 C 6.691406 -4.171875 7.195312 -3.746094 7.722656 -3.21875 C 7.117188 -2.554688 6.28125 -2.242188 5.578125 -2.242188 Z M 5.578125 -2.242188 "/></g></g></g><g fill="#000000" fill-opacity="1"><g transform="translate(38.710739, 20.661535)"><g><path d="M 12.226562 -6.59375 C 11.683594 -6.59375 11.078125 -6.261719 10.84375 -5.519531 C 10.082031 -3.121094 8.855469 -2.320312 7.976562 -2.320312 C 7.644531 -2.320312 7.449219 -2.496094 7.449219 -2.808594 C 7.449219 -2.964844 7.488281 -3.160156 7.546875 -3.375 L 9.730469 -9.691406 C 9.808594 -9.925781 9.847656 -10.140625 9.847656 -10.335938 C 9.847656 -11.195312 9.148438 -11.644531 8.425781 -11.644531 C 7.878906 -11.644531 7.3125 -11.390625 7 -10.902344 C 6.59375 -11.15625 5.832031 -11.449219 4.835938 -11.449219 C 3.550781 -11.449219 2.144531 -10.746094 1.617188 -9.246094 L -0.214844 -4 C -0.332031 -3.648438 -0.410156 -3.296875 -0.410156 -2.945312 C -0.410156 -1.328125 0.898438 0 2.613281 0 C 3.53125 0 4.464844 -0.410156 5.1875 -1.054688 C 5.8125 -0.15625 7.195312 0 7.78125 0 C 9.402344 0 11.566406 -0.820312 12.8125 -3.980469 C 13.085938 -4.738281 13.300781 -5.226562 13.300781 -5.578125 C 13.300781 -6.242188 12.792969 -6.59375 12.226562 -6.59375 Z M 5.792969 -6.785156 L 4.855469 -3.882812 C 4.445312 -2.613281 3.707031 -2.320312 3.296875 -2.320312 C 2.867188 -2.320312 2.652344 -2.59375 2.652344 -3.042969 C 2.652344 -3.296875 2.710938 -3.53125 2.769531 -3.707031 L 4.019531 -7.625 C 4.386719 -8.816406 4.933594 -8.972656 5.246094 -8.972656 C 5.617188 -8.972656 6.027344 -8.601562 6.027344 -7.9375 C 6.027344 -7.644531 5.949219 -7.273438 5.792969 -6.785156 Z M 5.792969 -6.785156 "/></g></g></g><g fill="#000000" fill-opacity="1"><g transform="translate(49.144855, 20.661535)"><g><path d="M 10.882812 -5.617188 C 10.023438 -3.277344 8.953125 -2.320312 8.035156 -2.320312 C 7.683594 -2.320312 7.488281 -2.496094 7.488281 -2.828125 C 7.488281 -2.964844 7.527344 -3.121094 7.585938 -3.316406 L 9.109375 -7.644531 C 9.246094 -8.035156 9.324219 -8.386719 9.324219 -8.71875 C 9.324219 -10.277344 7.996094 -11.449219 6.4375 -11.449219 C 5.675781 -11.449219 5.070312 -11.273438 4.5625 -10.902344 C 4.445312 -11.253906 3.960938 -11.449219 3.433594 -11.449219 C 2.886719 -11.449219 2.359375 -11.195312 2.164062 -10.648438 L -1.09375 -1.539062 C -1.152344 -1.363281 -1.171875 -1.210938 -1.171875 -1.054688 C -1.171875 -0.332031 -0.605469 0.0390625 0.0195312 0.0390625 C 0.703125 0.0390625 1.480469 -0.390625 1.773438 -1.269531 C 2.457031 -3.160156 3.394531 -5.832031 4.054688 -7.703125 C 4.582031 -8.679688 5.265625 -9.148438 5.8125 -9.148438 C 6.164062 -9.148438 6.417969 -8.914062 6.417969 -8.542969 C 6.417969 -8.40625 6.378906 -8.230469 6.320312 -8.054688 L 4.894531 -4.039062 C 4.738281 -3.589844 4.640625 -3.160156 4.640625 -2.75 C 4.640625 -0.957031 6.125 0 7.78125 0 C 9.769531 0 11.898438 -1.347656 13.242188 -5.148438 C 13.300781 -5.304688 13.339844 -5.460938 13.339844 -5.597656 C 13.339844 -6.222656 12.773438 -6.554688 12.1875 -6.554688 C 11.664062 -6.554688 11.078125 -6.261719 10.882812 -5.617188 Z M 10.882812 -5.617188 "/></g></g></g><g fill="#000000" fill-opacity="1"><g transform="translate(59.578971, 20.661535)"><g><path d="M 5.246094 -13.242188 C 6.125 -13.242188 6.84375 -13.964844 6.84375 -14.859375 C 6.84375 -15.738281 6.125 -16.441406 5.246094 -16.441406 C 4.367188 -16.441406 3.648438 -15.738281 3.648438 -14.859375 C 3.648438 -13.964844 4.367188 -13.242188 5.246094 -13.242188 Z M 3.941406 -6.882812 L 4.738281 -9.1875 C 4.855469 -9.554688 4.992188 -9.925781 4.992188 -10.179688 C 4.992188 -10.824219 4.464844 -11.449219 3.726562 -11.449219 C 3.042969 -11.449219 2.4375 -11 2.222656 -10.335938 C 1.25 -7.546875 -0.0195312 -3.84375 -1.113281 -0.761719 C -1.988281 -0.214844 -2.515625 -0.214844 -3.667969 0.0976562 C -5.714844 0.644531 -7.410156 1.289062 -7.9375 2.984375 C -8.015625 3.296875 -8.054688 3.589844 -8.054688 3.902344 C -8.054688 5.578125 -6.691406 7.039062 -4.40625 7.039062 C -2.476562 7.039062 -0.664062 6.007812 0.15625 3.746094 C 0.429688 2.925781 0.742188 2.066406 1.035156 1.269531 C 3.84375 0.390625 6.691406 -1.132812 8.035156 -5.226562 C 8.09375 -5.382812 8.113281 -5.539062 8.113281 -5.675781 C 8.113281 -6.339844 7.605469 -6.730469 7.019531 -6.730469 C 6.496094 -6.730469 5.929688 -6.398438 5.65625 -5.636719 C 4.933594 -3.648438 3.648438 -2.476562 2.105469 -1.695312 Z M -2.320312 2.164062 L -2.90625 3.492188 C -3.21875 4.191406 -3.882812 4.582031 -4.445312 4.582031 C -4.914062 4.582031 -5.109375 4.308594 -5.109375 3.960938 C -5.109375 3.84375 -5.089844 3.6875 -5.03125 3.550781 C -4.738281 2.867188 -3.589844 2.496094 -2.320312 2.164062 Z M -2.320312 2.164062 "/></g></g></g><g clip-path="url(#2ebb7b6799)"><g fill="#000000" fill-opacity="1"><g transform="translate(64.786292, 20.661535)"><g><path d="M 5.246094 -13.242188 C 6.125 -13.242188 6.84375 -13.964844 6.84375 -14.859375 C 6.84375 -15.738281 6.125 -16.441406 5.246094 -16.441406 C 4.367188 -16.441406 3.648438 -15.738281 3.648438 -14.859375 C 3.648438 -13.964844 4.367188 -13.242188 5.246094 -13.242188 Z M 2.613281 -3.296875 L 4.757812 -9.421875 C 4.835938 -9.671875 4.933594 -9.945312 4.933594 -10.140625 C 4.933594 -11 4.289062 -11.449219 3.628906 -11.449219 C 3.023438 -11.449219 2.378906 -11.019531 2.066406 -10.101562 C 1.441406 -8.269531 0.625 -5.949219 0 -4.132812 C -0.117188 -3.746094 -0.273438 -3.21875 -0.273438 -2.886719 C -0.273438 -1.054688 1.25 0 3.042969 0 C 4.953125 0 7.058594 -1.171875 8.425781 -5.207031 C 8.464844 -5.324219 8.484375 -5.441406 8.484375 -5.558594 C 8.484375 -6.164062 7.898438 -6.535156 7.3125 -6.535156 C 6.785156 -6.535156 6.261719 -6.261719 6.027344 -5.65625 C 5.109375 -3.121094 4.074219 -2.320312 3.296875 -2.320312 C 2.847656 -2.320312 2.554688 -2.613281 2.554688 -2.984375 C 2.554688 -3.082031 2.574219 -3.179688 2.613281 -3.296875 Z M 2.613281 -3.296875 "/></g></g></g></g></svg>