<svg xmlns="http://www.w3.org/2000/svg" xmlns:xlink="http://www.w3.org/1999/xlink" width="597" zoomAndPan="magnify" viewBox="0 0 447.75 248.250006" height="331" preserveAspectRatio="xMidYMid meet" version="1.0"><defs><g/><clipPath id="e068eb6ebf"><path d="M 75.578125 91 L 150 91 L 150 160 L 75.578125 160 Z M 75.578125 91 " clip-rule="nonzero"/></clipPath><clipPath id="1b6ed8269c"><path d="M 124.226562 161.589844 L 135.207031 161.589844 L 135.207031 172.570312 L 124.226562 172.570312 Z M 124.226562 161.589844 " clip-rule="nonzero"/></clipPath><clipPath id="8cbb286a98"><path d="M 129.71875 161.589844 C 126.683594 161.589844 124.226562 164.046875 124.226562 167.078125 C 124.226562 170.113281 126.683594 172.570312 129.71875 172.570312 C 132.75 172.570312 135.207031 170.113281 135.207031 167.078125 C 135.207031 164.046875 132.75 161.589844 129.71875 161.589844 " clip-rule="nonzero"/></clipPath><clipPath id="2fcad9c55f"><path d="M 91.265625 161.589844 L 102.25 161.589844 L 102.25 172.570312 L 91.265625 172.570312 Z M 91.265625 161.589844 " clip-rule="nonzero"/></clipPath><clipPath id="78b517c678"><path d="M 96.757812 161.589844 C 93.726562 161.589844 91.265625 164.046875 91.265625 167.078125 C 91.265625 170.113281 93.726562 172.570312 96.757812 172.570312 C 99.792969 172.570312 102.25 170.113281 102.25 167.078125 C 102.25 164.046875 99.792969 161.589844 96.757812 161.589844 " clip-rule="nonzero"/></clipPath></defs><g clip-path="url(#e068eb6ebf)"><path fill="#ff0056" d="M 141.011719 101.484375 L 93.476562 101.484375 L 92.757812 98.113281 C 91.894531 94.125 88.308594 91.234375 84.214844 91.234375 L 79.167969 91.234375 C 77.183594 91.234375 75.578125 92.835938 75.578125 94.816406 C 75.578125 96.777344 77.183594 98.402344 79.167969 98.402344 L 84.214844 98.402344 C 84.933594 98.402344 85.578125 98.902344 85.746094 99.621094 L 94.933594 142.433594 L 92.253906 145.109375 C 89.742188 147.617188 89 151.34375 90.363281 154.617188 C 91.703125 157.890625 94.886719 159.992188 98.425781 159.992188 L 131.417969 159.992188 C 133.402344 159.992188 135.007812 158.394531 135.007812 156.410156 C 135.007812 154.449219 133.402344 152.824219 131.417969 152.824219 L 98.425781 152.824219 C 97.519531 152.824219 97.136719 152.230469 96.992188 151.871094 C 96.847656 151.511719 96.679688 150.820312 97.328125 150.199219 L 100.339844 147.164062 L 133.476562 147.164062 C 137.421875 147.164062 140.890625 144.511719 141.898438 140.6875 L 149.433594 112.449219 C 150.152344 109.820312 149.601562 107.074219 147.925781 104.898438 C 146.277344 102.726562 143.738281 101.484375 141.011719 101.484375 Z M 141.011719 101.484375 " fill-opacity="1" fill-rule="nonzero"/></g><g clip-path="url(#1b6ed8269c)"><g clip-path="url(#8cbb286a98)"><path fill="#ff0056" d="M 124.226562 161.589844 L 135.207031 161.589844 L 135.207031 172.570312 L 124.226562 172.570312 Z M 124.226562 161.589844 " fill-opacity="1" fill-rule="nonzero"/></g></g><g clip-path="url(#2fcad9c55f)"><g clip-path="url(#78b517c678)"><path fill="#ff0056" d="M 91.265625 161.589844 L 102.25 161.589844 L 102.25 172.570312 L 91.265625 172.570312 Z M 91.265625 161.589844 " fill-opacity="1" fill-rule="nonzero"/></g></g><g fill="#171717" fill-opacity="1"><g transform="translate(158.080646, 156.273351)"><g><path d="M 54.089844 -22.851562 C 52.472656 -18.082031 49.394531 -14.925781 45.164062 -14.925781 L 45.085938 -14.925781 C 46.78125 -17.851562 47.933594 -21.621094 47.933594 -25.542969 C 47.933594 -29.621094 46.625 -33.855469 43.394531 -37.316406 C 48.550781 -40.777344 52.089844 -47.550781 52.089844 -53.472656 C 52.089844 -61.320312 46.164062 -66.015625 39.46875 -66.707031 C 38.777344 -66.785156 37.933594 -66.863281 36.855469 -66.863281 C 34.699219 -66.863281 31.851562 -66.554688 28.929688 -65.089844 C 28.929688 -67.628906 26.621094 -69.167969 24.003906 -69.167969 C 21.390625 -69.167969 18.464844 -67.554688 17.386719 -64.015625 L -2.769531 -7 C -3.15625 -6 -3.308594 -5 -3.308594 -4.230469 C -3.308594 -1.078125 -0.921875 0.769531 1.691406 0.769531 C 4.386719 0.769531 7.386719 -1.152344 8.15625 -5.386719 C 10.847656 -1.539062 16.773438 0.847656 22.851562 0.847656 C 28.699219 0.847656 34.929688 -1.152344 39.546875 -5.925781 C 41.007812 -5.460938 42.546875 -5.230469 44.394531 -5.230469 C 53.398438 -5.230469 60.628906 -11.464844 63.320312 -20.851562 C 63.398438 -21.234375 63.476562 -21.621094 63.476562 -21.929688 C 63.476562 -24.46875 61.015625 -25.929688 58.550781 -25.929688 C 56.628906 -25.929688 54.703125 -25.003906 54.089844 -22.851562 Z M 26.542969 -45.164062 C 24.082031 -44.164062 21.851562 -41.007812 21.851562 -37.46875 C 21.851562 -36.777344 21.929688 -36.085938 22.082031 -35.394531 C 23.390625 -31.316406 26.851562 -30.082031 29.777344 -30.082031 C 30.929688 -30.082031 32.007812 -30.238281 32.777344 -30.546875 C 34.699219 -30.082031 35.777344 -28.390625 35.777344 -25.851562 C 35.777344 -24.542969 35.546875 -23.082031 34.929688 -21.390625 C 32.160156 -24.082031 28.007812 -26.082031 22.851562 -26.160156 C 20.390625 -26.160156 17.464844 -25.773438 15.542969 -24.929688 L 24.773438 -50.472656 C 26.699219 -54.242188 31.007812 -56.089844 34.316406 -56.089844 C 37.085938 -56.089844 39.316406 -54.398438 39.316406 -51.78125 C 39.316406 -49.550781 38.238281 -45.855469 34.546875 -44.316406 C 33.777344 -44.933594 31.699219 -45.703125 29.46875 -45.703125 C 28.46875 -45.703125 27.46875 -45.550781 26.542969 -45.164062 Z M 22.003906 -8.847656 C 19.160156 -8.847656 17.542969 -10.15625 17.542969 -11.925781 C 17.542969 -12.308594 17.542969 -12.695312 17.695312 -13.078125 C 18.3125 -15.082031 20.3125 -16.464844 23.234375 -16.464844 C 26.390625 -16.464844 28.390625 -14.773438 30.46875 -12.695312 C 28.082031 -10.078125 24.773438 -8.847656 22.003906 -8.847656 Z M 22.003906 -8.847656 "/></g></g></g><g fill="#171717" fill-opacity="1"><g transform="translate(206.316161, 156.273351)"><g><path d="M 48.242188 -26.007812 C 46.085938 -26.007812 43.703125 -24.699219 42.777344 -21.773438 C 39.777344 -12.308594 34.929688 -9.15625 31.46875 -9.15625 C 30.160156 -9.15625 29.390625 -9.847656 29.390625 -11.078125 C 29.390625 -11.695312 29.546875 -12.464844 29.777344 -13.3125 L 38.394531 -38.238281 C 38.699219 -39.164062 38.855469 -40.007812 38.855469 -40.777344 C 38.855469 -44.164062 36.085938 -45.933594 33.238281 -45.933594 C 31.085938 -45.933594 28.851562 -44.933594 27.621094 -43.011719 C 26.007812 -44.011719 23.003906 -45.164062 19.082031 -45.164062 C 14.003906 -45.164062 8.464844 -42.394531 6.386719 -36.46875 L -0.847656 -15.773438 C -1.308594 -14.386719 -1.617188 -13.003906 -1.617188 -11.617188 C -1.617188 -5.230469 3.539062 0 10.308594 0 C 13.925781 0 17.621094 -1.617188 20.464844 -4.15625 C 22.929688 -0.617188 28.390625 0 30.699219 0 C 37.085938 0 45.625 -3.230469 50.550781 -15.695312 C 51.628906 -18.695312 52.472656 -20.621094 52.472656 -22.003906 C 52.472656 -24.621094 50.472656 -26.007812 48.242188 -26.007812 Z M 22.851562 -26.773438 L 19.160156 -15.3125 C 17.542969 -10.308594 14.617188 -9.15625 13.003906 -9.15625 C 11.308594 -9.15625 10.464844 -10.234375 10.464844 -12.003906 C 10.464844 -13.003906 10.695312 -13.925781 10.925781 -14.617188 L 15.851562 -30.082031 C 17.3125 -34.777344 19.464844 -35.394531 20.695312 -35.394531 C 22.160156 -35.394531 23.773438 -33.929688 23.773438 -31.316406 C 23.773438 -30.160156 23.46875 -28.699219 22.851562 -26.773438 Z M 22.851562 -26.773438 "/></g></g></g><g fill="#171717" fill-opacity="1"><g transform="translate(243.627383, 156.273351)"><g><path d="M 42.933594 -22.160156 C 39.546875 -12.925781 35.316406 -9.15625 31.699219 -9.15625 C 30.316406 -9.15625 29.546875 -9.847656 29.546875 -11.15625 C 29.546875 -11.695312 29.699219 -12.308594 29.929688 -13.078125 L 35.929688 -30.160156 C 36.46875 -31.699219 36.777344 -33.085938 36.777344 -34.390625 C 36.777344 -40.546875 31.546875 -45.164062 25.390625 -45.164062 C 22.390625 -45.164062 20.003906 -44.472656 18.003906 -43.011719 C 17.542969 -44.394531 15.617188 -45.164062 13.542969 -45.164062 C 11.386719 -45.164062 9.308594 -44.164062 8.539062 -42.007812 L -4.308594 -6.078125 C -4.539062 -5.386719 -4.617188 -4.769531 -4.617188 -4.15625 C -4.617188 -1.308594 -2.386719 0.152344 0.078125 0.152344 C 2.769531 0.152344 5.847656 -1.539062 7 -5 C 9.695312 -12.464844 13.386719 -23.003906 16.003906 -30.390625 C 18.082031 -34.238281 20.773438 -36.085938 22.929688 -36.085938 C 24.3125 -36.085938 25.3125 -35.160156 25.3125 -33.699219 C 25.3125 -33.160156 25.160156 -32.46875 24.929688 -31.777344 L 19.3125 -15.925781 C 18.695312 -14.15625 18.3125 -12.464844 18.3125 -10.847656 C 18.3125 -3.769531 24.160156 0 30.699219 0 C 38.546875 0 46.933594 -5.308594 52.242188 -20.3125 C 52.472656 -20.929688 52.628906 -21.542969 52.628906 -22.082031 C 52.628906 -24.542969 50.394531 -25.851562 48.085938 -25.851562 C 46.011719 -25.851562 43.703125 -24.699219 42.933594 -22.160156 Z M 42.933594 -22.160156 "/></g></g></g><g fill="#171717" fill-opacity="1"><g transform="translate(280.93861, 156.273351)"><g><path d="M 20.695312 -52.242188 C 24.160156 -52.242188 27.007812 -55.089844 27.007812 -58.628906 C 27.007812 -62.089844 24.160156 -64.859375 20.695312 -64.859375 C 17.234375 -64.859375 14.386719 -62.089844 14.386719 -58.628906 C 14.386719 -55.089844 17.234375 -52.242188 20.695312 -52.242188 Z M 15.542969 -27.160156 L 18.695312 -36.238281 C 19.160156 -37.699219 19.695312 -39.164062 19.695312 -40.164062 C 19.695312 -42.703125 17.621094 -45.164062 14.695312 -45.164062 C 12.003906 -45.164062 9.617188 -43.394531 8.769531 -40.777344 C 4.925781 -29.777344 -0.078125 -15.15625 -4.386719 -3 C -7.847656 -0.847656 -9.925781 -0.847656 -14.464844 0.382812 C -22.542969 2.539062 -29.238281 5.078125 -31.316406 11.773438 C -31.621094 13.003906 -31.777344 14.15625 -31.777344 15.386719 C -31.777344 22.003906 -26.390625 27.777344 -17.386719 27.777344 C -9.769531 27.777344 -2.617188 23.699219 0.617188 14.773438 C 1.691406 11.542969 2.921875 8.15625 4.078125 5 C 15.15625 1.539062 26.390625 -4.460938 31.699219 -20.621094 C 31.929688 -21.234375 32.007812 -21.851562 32.007812 -22.390625 C 32.007812 -25.003906 30.007812 -26.542969 27.699219 -26.542969 C 25.621094 -26.542969 23.390625 -25.238281 22.3125 -22.234375 C 19.464844 -14.386719 14.386719 -9.769531 8.308594 -6.695312 Z M -9.15625 8.539062 L -11.464844 13.773438 C -12.695312 16.542969 -15.3125 18.082031 -17.542969 18.082031 C -19.390625 18.082031 -20.160156 17.003906 -20.160156 15.617188 C -20.160156 15.15625 -20.082031 14.542969 -19.851562 14.003906 C -18.695312 11.308594 -14.15625 9.847656 -9.15625 8.539062 Z M -9.15625 8.539062 "/></g></g></g><g fill="#171717" fill-opacity="1"><g transform="translate(297.632146, 156.273351)"><g><path d="M 20.695312 -52.242188 C 24.160156 -52.242188 27.007812 -55.089844 27.007812 -58.628906 C 27.007812 -62.089844 24.160156 -64.859375 20.695312 -64.859375 C 17.234375 -64.859375 14.386719 -62.089844 14.386719 -58.628906 C 14.386719 -55.089844 17.234375 -52.242188 20.695312 -52.242188 Z M 10.308594 -13.003906 L 18.773438 -37.164062 C 19.082031 -38.164062 19.464844 -39.238281 19.464844 -40.007812 C 19.464844 -43.394531 16.925781 -45.164062 14.3125 -45.164062 C 11.925781 -45.164062 9.386719 -43.472656 8.15625 -39.855469 C 5.695312 -32.621094 2.460938 -23.46875 0 -16.3125 C -0.460938 -14.773438 -1.078125 -12.695312 -1.078125 -11.386719 C -1.078125 -4.15625 4.925781 0 12.003906 0 C 19.542969 0 27.851562 -4.617188 33.238281 -20.542969 C 33.390625 -21.003906 33.46875 -21.464844 33.46875 -21.929688 C 33.46875 -24.3125 31.160156 -25.773438 28.851562 -25.773438 C 26.773438 -25.773438 24.699219 -24.699219 23.773438 -22.3125 C 20.160156 -12.308594 16.082031 -9.15625 13.003906 -9.15625 C 11.234375 -9.15625 10.078125 -10.308594 10.078125 -11.773438 C 10.078125 -12.15625 10.15625 -12.542969 10.308594 -13.003906 Z M 10.308594 -13.003906 "/></g></g></g></svg>