<!DOCTYPE svg PUBLIC "-//W3C//DTD SVG 1.1//EN" "http://www.w3.org/Graphics/SVG/1.1/DTD/svg11.dtd">
<!-- Uploaded to: SVG Repo, www.svgrepo.com, Transformed by: SVG Repo Mixer Tools -->
<svg height="800px" width="800px" version="1.1" id="Layer_1" xmlns="http://www.w3.org/2000/svg" xmlns:xlink="http://www.w3.org/1999/xlink" viewBox="0 0 512 512" xml:space="preserve" fill="#000000">
<g id="SVGRepo_bgCarrier" stroke-width="0"/>
<g id="SVGRepo_iconCarrier"> <path style="fill:#FA6E51;" d="M0,256.006C0,397.402,114.606,512.004,255.996,512C397.394,512.004,512,397.402,512,256.006 C512.009,114.61,397.394,0,255.996,0C114.606,0,0,114.614,0,256.006z"/> <path style="fill:&lt;svg height=" 200px"="" width="200px" version="1.1" id="Layer_1" xmlns="http://www.w3.org/2000/svg" xmlns:xlink="http://www.w3.org/1999/xlink" viewBox="0 0 512 512" xml:space="preserve" fill="#000000">
<g id="SVGRepo_bgCarrier" stroke-width="0"/>
<g id="SVGRepo_iconCarrier"> <path style="fill:#FA6E51;" d="M0,256.006C0,397.402,114.606,512.004,255.996,512C397.394,512.004,512,397.402,512,256.006 C512.009,114.61,397.394,0,255.996,0C114.606,0,0,114.614,0,256.006z"/> <path style="fill:#E8573F;" d="M476.807,385.506c2.572-4.619-214.177-214.177-214.179-214.178l-1.63-1.63 c-2.762-2.762-7.235-2.762-9.998,0L88.394,332.305c-2.762,2.762-2.762,7.235,0,9.998c0.289,0.289,0.657,0.422,0.98,0.651 c0.229,0.323,167.783,167.879,168.107,168.108c0.206,0.291,0.352,0.612,0.589,0.886 C351.328,511.207,432.658,460.623,476.807,385.506z"/> <path style="fill:#F4F6F9;" d="M423.607,332.305L260.998,169.697c-2.762-2.762-7.235-2.762-9.997,0L88.393,332.305 c-2.762,2.762-2.762,7.235,0,9.997c2.762,2.762,7.235,2.762,9.997,0L256,184.693l157.61,157.61c1.381,1.381,3.189,2.071,4.998,2.071 s3.618-0.69,4.998-2.071C426.369,339.541,426.369,335.068,423.607,332.305z"/> </g>;" d="M476.807,385.506c2.572-4.619-214.177-214.177-214.179-214.178l-1.63-1.63 c-2.762-2.762-7.235-2.762-9.998,0L88.394,332.305c-2.762,2.762-2.762,7.235,0,9.998c0.289,0.289,0.657,0.422,0.98,0.651 c0.229,0.323,167.783,167.879,168.107,168.108c0.206,0.291,0.352,0.612,0.589,0.886 C351.328,511.207,432.658,460.623,476.807,385.506z"&gt;</path> <path style="fill:#F4F6F9;" d="M423.607,332.305L260.998,169.697c-2.762-2.762-7.235-2.762-9.997,0L88.393,332.305 c-2.762,2.762-2.762,7.235,0,9.997c2.762,2.762,7.235,2.762,9.997,0L256,184.693l157.61,157.61c1.381,1.381,3.189,2.071,4.998,2.071 s3.618-0.69,4.998-2.071C426.369,339.541,426.369,335.068,423.607,332.305z"/> </g>
</svg>